# xmcd
#
# Track frame offsets:
#	150
#	15156
#	29657
#	47246
#	68440
#	84682
#	100526
#	124648
#	144226
#	162863
#	179994
#
# Disc length: 2653 seconds
#
# Revision: 1
# Processed by: cddbd v1.5.2PL0 Copyright (c) Steve Scherf et al.
# Submitted via: audiograbber 1.83.01
#
DISCID=880a5b0b
DTITLE=Montgomery, John Michael - Time flies
DYEAR=2008
DGENRE=Country
TTITLE0=What did I do
TTITLE1=Let's get lost
TTITLE2=If you ever went away
TTITLE3=Forever
TTITLE4=With my shirt on
TTITLE5=Mad cowboy disease
TTITLE6=Loving and letting go
TTITLE7=Fly on
TTITLE8=Drunkard's prayer
TTITLE9=All in a day
TTITLE10=Brothers 'til the end
EXTD=
EXTT0=
EXTT1=
EXTT2=
EXTT3=
EXTT4=
EXTT5=
EXTT6=
EXTT7=
EXTT8=
EXTT9=
EXTT10=
PLAYORDER=
